<svg width="1663" height="658" viewBox="0 0 1663 658" fill="none" xmlns="http://www.w3.org/2000/svg">
<mask id="mask0_3462_3747" style="mask-type:alpha" maskUnits="userSpaceOnUse" x="0" y="0" width="1663" height="658">
<path d="M466.735 642.169V527.368H518.754V390.145H466.735V15.247H290.946L0.355469 390.145V527.368H280.183V642.169H466.735ZM280.183 256.509V390.145H186.01L280.183 256.509Z" fill="#DCD651"/>
<path d="M835.747 657.416C1044.72 657.416 1134.41 487.905 1134.41 330.053C1134.41 168.614 1044.72 0 835.747 0C625.876 0 537.084 168.614 537.084 330.053C537.084 487.905 625.876 657.416 835.747 657.416ZM835.747 521.09C727.224 521.09 723.636 400.907 723.636 330.053C723.636 258.303 727.224 137.223 835.747 137.223C943.373 137.223 947.857 258.303 947.857 330.053C947.857 400.907 943.373 521.09 835.747 521.09Z" fill="#DCD651"/>
<path d="M1610.26 642.169V527.368H1662.28V390.145H1610.26V15.247H1434.47L1143.88 390.145V527.368H1423.71V642.169H1610.26ZM1423.71 256.509V390.145H1329.54L1423.71 256.509Z" fill="#DCD651"/>
</mask>
<g mask="url(#mask0_3462_3747)">
<path d="M960.493 -509.964L784.048 -412.602L838.511 -161.177L959.747 -1.89099L1105.23 -66.0529L1140.3 -101.118L1194.01 -214.521L1290.26 -332.399L1307.41 -413.721L1334.27 -603.222L1285.03 -652.463L1110.83 -638.66L960.493 -509.964Z" stroke="black"/>
<path d="M871.327 -410.427L623.591 -273.727L700.059 79.2837L870.28 302.927L1074.54 212.841L1123.78 163.608L1199.2 4.38671L1334.33 -161.12L1358.42 -275.299L1396.13 -541.366L1326.99 -610.502L1082.4 -591.123L871.327 -410.427Z" stroke="black"/>
<path d="M782.161 -310.891L463.134 -134.853L561.607 319.744L780.812 607.745L1043.86 491.735L1107.26 428.334L1204.38 223.294L1378.4 10.1593L1409.42 -136.877L1457.99 -479.51L1368.96 -568.541L1053.97 -543.586L782.161 -310.891Z" stroke="black"/>
<path d="M692.993 -211.355L302.675 4.02115L423.154 560.204L691.343 912.563L1013.17 770.629L1090.74 693.061L1209.57 442.201L1422.47 181.438L1460.43 1.54556L1519.84 -417.654L1410.91 -526.58L1025.55 -496.048L692.993 -211.355Z" stroke="black"/>
<path d="M603.827 -111.819L142.218 142.895L284.702 800.664L601.876 1217.38L982.484 1049.52L1074.22 957.787L1214.75 661.108L1466.54 352.718L1511.43 139.968L1581.7 -355.799L1452.88 -484.62L997.122 -448.511L603.827 -111.819Z" stroke="black"/>
<path d="M514.662 -12.2831L-18.2386 281.77L146.251 1041.12L512.408 1522.2L951.797 1328.42L1057.7 1222.51L1219.94 880.015L1510.61 523.997L1562.44 278.39L1643.55 -293.943L1494.84 -442.659L968.697 -400.973L514.662 -12.2831Z" stroke="black"/>
<path d="M425.494 87.253L-178.697 420.644L7.79702 1281.58L422.939 1827.02L921.109 1607.31L1041.18 1487.24L1225.12 1098.92L1554.68 695.276L1613.44 416.812L1705.41 -232.087L1536.8 -400.698L940.27 -353.436L425.494 87.253Z" stroke="black"/>
<path d="M336.328 186.789L-339.154 559.518L-130.655 1522.04L333.472 2131.83L890.423 1886.2L1024.66 1751.97L1230.31 1317.83L1598.75 866.555L1664.44 555.234L1767.26 -170.231L1578.76 -358.738L911.844 -305.899L336.328 186.789Z" stroke="black"/>
<path d="M1932.65 255.071L1760.11 150.946L1569.6 323.825L1492.27 508.461L1620.58 602.373L1668.48 615.208L1793.55 605.027L1943.75 629.436L2022.76 603.636L2200.3 532.145L2218.32 464.881L2119.27 320.915L1932.65 255.071Z" stroke="black"/>
<path d="M1801.86 227.619L1559.61 81.4231L1292.13 324.152L1183.56 583.389L1363.71 715.244L1430.96 733.265L1606.56 718.97L1817.46 753.242L1928.38 717.018L2177.66 616.642L2202.97 522.201L2063.89 320.066L1801.86 227.619Z" stroke="black"/>
<path d="M1671.08 200.167L1359.11 11.9L1014.66 324.479L874.842 658.317L1106.83 828.116L1193.44 851.322L1419.57 832.914L1691.16 877.048L1834.01 830.399L2155.02 701.139L2187.61 579.52L2008.5 319.217L1671.08 200.167Z" stroke="black"/>
<path d="M1540.29 172.714L1158.61 -57.6231L737.185 324.806L566.127 733.244L849.959 940.987L955.919 969.379L1232.58 946.858L1564.86 1000.85L1739.63 943.781L2132.38 785.635L2172.25 636.84L1953.12 318.368L1540.29 172.714Z" stroke="black"/>
<path d="M1409.51 145.262L958.117 -127.146L459.715 325.133L257.414 808.172L593.087 1053.86L718.401 1087.44L1045.6 1060.8L1438.57 1124.66L1645.26 1057.16L2109.74 870.132L2156.89 694.159L1897.74 317.519L1409.51 145.262Z" stroke="black"/>
<path d="M1278.73 117.809L757.619 -196.669L182.244 325.46L-51.3006 883.099L336.214 1166.73L480.882 1205.49L858.612 1174.75L1312.27 1248.47L1550.88 1170.54L2087.1 954.629L2141.53 751.478L1842.36 316.67L1278.73 117.809Z" stroke="black"/>
<path d="M1147.94 90.3569L557.123 -266.193L-95.226 325.787L-360.013 958.026L79.3424 1279.6L243.364 1323.55L671.626 1288.69L1185.97 1372.27L1456.51 1283.93L2064.46 1039.13L2126.17 808.798L1786.98 315.821L1147.94 90.3569Z" stroke="black"/>
<path d="M1017.16 62.9045L356.625 -335.716L-372.697 326.114L-668.728 1032.95L-177.531 1392.47L5.84375 1441.61L484.639 1402.63L1059.68 1496.08L1362.13 1397.31L2041.82 1123.62L2110.81 866.117L1731.6 314.972L1017.16 62.9045Z" stroke="black"/>
<path d="M806.61 1340.11L1118.69 1152.03L1002.95 701.518L772.926 422.086L514.496 548.042L453.559 613.815L364.324 822.41L198.563 1042.03L173.167 1190.14L137.706 1534.37L230.068 1619.94L543.867 1583L806.61 1340.11Z" stroke="black"/>
<path d="M891.916 1237.24L1273.74 1007.14L1132.14 455.953L850.705 114.078L534.525 268.181L459.971 348.651L350.795 603.86L147.993 872.551L116.922 1053.76L73.5367 1474.92L186.537 1579.61L570.46 1534.41L891.916 1237.24Z" stroke="black"/>
<path d="M977.221 1134.38L1428.78 862.245L1261.32 210.388L928.483 -193.93L554.553 -11.6804L466.382 83.4875L337.266 385.31L97.4226 703.077L60.6762 917.385L9.36699 1415.47L143.007 1539.28L597.052 1485.82L977.221 1134.38Z" stroke="black"/>
<path d="M1062.53 1031.51L1583.83 717.353L1390.5 -35.1768L1006.26 -501.938L574.583 -291.542L472.794 -181.676L323.737 166.76L46.8523 533.603L4.43069 781.008L-54.8026 1356.02L99.4767 1498.95L623.645 1437.24L1062.53 1031.51Z" stroke="black"/>
<path d="M1147.83 928.649L1738.87 572.46L1519.68 -280.742L1084.04 -809.946L594.612 -571.403L479.206 -446.84L310.208 -51.7902L-3.71803 364.129L-51.8147 644.632L-118.972 1296.57L55.9464 1458.62L650.237 1388.65L1147.83 928.649Z" stroke="black"/>
<path d="M1233.14 825.785L1893.92 427.568L1648.86 -526.307L1161.82 -1117.95L614.641 -851.264L485.618 -712.003L296.679 -270.34L-54.2884 194.655L-108.06 508.256L-183.142 1237.11L12.4161 1418.29L676.83 1340.06L1233.14 825.785Z" stroke="black"/>
<path d="M-77.3546 41.189L15.7255 219.93L268.39 171.544L430.552 54.1828L369.916 -92.805L335.707 -128.705L223.632 -185.14L108.108 -284.197L27.2234 -303.312L-161.575 -334.731L-211.989 -286.692L-202.39 -112.203L-77.3546 41.189Z" stroke="black"/>
<path d="M20.0028 132.729L150.691 383.689L505.443 315.753L733.125 150.973L647.989 -55.4039L599.957 -105.809L442.6 -185.047L280.399 -324.126L166.835 -350.964L-98.2466 -395.078L-169.029 -327.629L-155.552 -82.6388L20.0028 132.729Z" stroke="black"/>
<path d="M117.36 224.269L285.657 547.447L742.495 459.961L1035.7 247.763L926.062 -18.0028L864.208 -82.9136L661.568 -184.953L452.691 -364.055L306.446 -398.616L-34.9178 -455.424L-126.069 -368.566L-108.714 -53.0752L117.36 224.269Z" stroke="black"/>
<path d="M214.72 315.809L420.624 711.206L979.55 604.17L1338.27 344.553L1204.14 19.3982L1128.46 -60.0176L880.539 -184.859L624.984 -403.984L446.059 -446.269L28.413 -515.771L-83.1072 -409.503L-61.8737 -23.5115L214.72 315.809Z" stroke="black"/>
<path d="M312.077 407.349L555.59 874.965L1216.6 748.379L1640.84 441.343L1482.21 56.7993L1392.71 -37.1219L1099.51 -184.765L797.276 -443.913L585.67 -493.921L91.7419 -576.118L-40.1473 -450.44L-15.0356 6.05215L312.077 407.349Z" stroke="black"/>
<path d="M409.435 498.889L690.555 1038.72L1453.65 892.587L1943.42 538.133L1760.28 94.2004L1656.96 -14.2258L1318.48 -184.671L969.568 -483.842L725.281 -541.573L155.071 -636.465L2.81249 -491.376L31.8025 35.6158L409.435 498.889Z" stroke="black"/>
<path d="M506.792 590.429L825.521 1202.48L1690.71 1036.8L2245.99 634.923L2038.36 131.602L1921.21 8.67003L1537.44 -184.577L1141.86 -523.771L864.892 -589.225L218.399 -696.811L45.7723 -532.313L78.6406 65.1795L506.792 590.429Z" stroke="black"/>
<path d="M604.149 681.969L960.487 1366.24L1927.76 1181L2548.56 731.713L2316.43 169.002L2185.46 31.5659L1756.41 -184.484L1314.15 -563.7L1004.5 -636.878L281.728 -757.158L88.7322 -573.25L125.479 94.7432L604.149 681.969Z" stroke="black"/>
<path d="M953.193 589.521L1152.9 616.531L1259.05 382.196L1256.66 182.035L1101.61 146.826L1052.55 154.076L941.819 213.105L794.276 250.378L732.022 305.442L597.492 441.581L607.674 510.469L755.772 603.235L953.193 589.521Z" stroke="black"/>
<path d="M1084.12 562.757L1364.52 600.681L1513.56 271.665L1510.2 -9.36899L1292.5 -58.8048L1223.62 -48.6244L1068.15 34.2546L860.995 86.5869L773.588 163.899L584.703 355.044L598.998 451.766L806.934 582.013L1084.12 562.757Z" stroke="black"/>
<path d="M1215.05 535.994L1576.13 584.83L1768.06 161.134L1763.74 -200.773L1483.39 -264.435L1394.69 -251.325L1194.48 -144.596L927.712 -77.2041L815.151 22.3555L571.911 268.507L590.321 393.062L858.094 560.79L1215.05 535.994Z" stroke="black"/>
<path d="M1345.97 509.23L1787.75 568.98L2022.57 50.6029L2017.29 -392.177L1674.28 -470.065L1565.76 -454.026L1320.81 -323.447L994.432 -240.995L856.717 -119.188L559.121 181.969L581.645 334.358L909.256 539.568L1345.97 509.23Z" stroke="black"/>
<path d="M1476.9 482.466L1999.36 553.13L2277.07 -59.9283L2270.83 -583.582L1865.17 -675.696L1736.83 -656.727L1447.14 -502.297L1061.15 -404.786L898.281 -260.731L546.33 95.432L572.967 275.655L960.416 518.345L1476.9 482.466Z" stroke="black"/>
<path d="M1607.83 455.703L2210.98 537.279L2531.58 -170.459L2524.37 -774.986L2056.07 -881.326L1907.9 -859.427L1573.48 -681.148L1127.87 -568.577L939.847 -402.274L533.54 8.89484L564.292 216.951L1011.58 497.123L1607.83 455.703Z" stroke="black"/>
<path d="M1738.75 428.939L2422.6 521.429L2786.08 -280.99L2777.91 -966.39L2246.96 -1086.96L2078.97 -1062.13L1699.81 -859.999L1194.58 -732.368L981.41 -543.817L520.748 -77.6424L555.614 158.248L1062.74 475.901L1738.75 428.939Z" stroke="black"/>
<path d="M1869.68 402.176L2634.21 505.579L3040.59 -391.522L3031.45 -1157.79L2437.85 -1292.59L2250.05 -1264.83L1826.14 -1038.85L1261.3 -896.159L1022.98 -685.36L507.959 -164.18L546.938 99.5438L1113.9 454.678L1869.68 402.176Z" stroke="black"/>
<path d="M1563.19 532.521L1762.9 559.531L1869.05 325.196L1866.66 125.035L1711.61 89.8256L1662.55 97.0764L1551.82 156.105L1404.28 193.378L1342.02 248.442L1207.49 384.581L1217.67 453.469L1365.77 546.235L1563.19 532.521Z" stroke="black"/>
<path d="M1694.12 505.757L1974.52 543.681L2123.56 214.665L2120.2 -66.369L1902.5 -115.805L1833.62 -105.624L1678.15 -22.7454L1471 29.5869L1383.59 106.899L1194.7 298.044L1209 394.766L1416.93 525.013L1694.12 505.757Z" stroke="black"/>
<path d="M1825.05 478.994L2186.13 527.83L2378.06 104.134L2373.74 -257.773L2093.39 -321.435L2004.69 -308.325L1804.48 -201.596L1537.71 -134.204L1425.15 -34.6445L1181.91 211.507L1200.32 336.062L1468.09 503.79L1825.05 478.994Z" stroke="black"/>
<path d="M1955.97 452.23L2397.75 511.98L2632.57 -6.39708L2627.29 -449.177L2284.28 -527.065L2175.76 -511.026L1930.81 -380.447L1604.43 -297.995L1466.72 -176.188L1169.12 124.969L1191.65 277.358L1519.26 482.568L1955.97 452.23Z" stroke="black"/>
<path d="M2086.9 425.466L2609.36 496.13L2887.07 -116.928L2880.83 -640.582L2475.17 -732.696L2346.83 -713.727L2057.14 -559.297L1671.15 -461.786L1508.28 -317.731L1156.33 38.432L1182.97 218.655L1570.42 461.345L2086.9 425.466Z" stroke="black"/>
<path d="M2217.83 398.703L2820.98 480.279L3141.58 -227.459L3134.37 -831.986L2666.07 -938.326L2517.9 -916.427L2183.48 -738.148L1737.87 -625.577L1549.85 -459.274L1143.54 -48.1052L1174.29 159.951L1621.58 440.123L2217.83 398.703Z" stroke="black"/>
<path d="M2348.75 371.939L3032.6 464.429L3396.08 -337.99L3387.91 -1023.39L2856.96 -1143.96L2688.97 -1119.13L2309.81 -916.999L1804.58 -789.368L1591.41 -600.817L1130.75 -134.642L1165.61 101.248L1672.74 418.901L2348.75 371.939Z" stroke="black"/>
<path d="M2479.68 345.176L3244.21 448.579L3650.59 -448.522L3641.45 -1214.79L3047.85 -1349.59L2860.05 -1321.83L2436.14 -1095.85L1871.3 -953.159L1632.98 -742.36L1117.96 -221.18L1156.94 42.5438L1723.9 397.678L2479.68 345.176Z" stroke="black"/>
</g>
</svg>
